# xmcd
#
# Track frame offsets:
#	150
#	20017
#	36306
#	59598
#	79170
#	92888
#	110481
#	125164
#	139012
#	155026
#	170760
#	183590
#	198182
#	212381
#
# Disc length: 3131 seconds
#
# Revision: 1
# Processed by: cddbd v1.5.2PL0 Copyright (c) Steve Scherf et al.
# Submitted via: EasyCDDAExtractor 6.2.0.3
#
DISCID=cf0c390e
DTITLE=Various Artist - Super Fiesta Total Vol. 2
DYEAR=1900
DGENRE=Latin
TTITLE0=Mixed - Como La Quiero Cuanto La Extrano
TTITLE1=Detalles
TTITLE2=No Se Lo Digas A Ella
TTITLE3=Entre La Espada Y La Pared
TTITLE4=Lluvia
TTITLE5=Historia Entre Tus Dedos
TTITLE6=Jardin Prohibido
TTITLE7=Momentos
TTITLE8=Preguntale
TTITLE9=Sombras
TTITLE10=Cantarle A La Vida
TTITLE11=Luis Mex Salsa
TTITLE12=Por Debajo De La Mesa
TTITLE13=Palabra De Honor
EXTD=
EXTT0=
EXTT1=
EXTT2=
EXTT3=
EXTT4=
EXTT5=
EXTT6=
EXTT7=
EXTT8=
EXTT9=
EXTT10=
EXTT11=
EXTT12=
EXTT13=
PLAYORDER=
